<svg width="130" height="172" viewBox="0 0 130 172" fill="none" xmlns="http://www.w3.org/2000/svg">
<path d="M74.8484 89.9208C75.0632 92.1316 74.7156 94.3608 73.8378 96.4011L71.3505 102.183C69.7632 105.873 69.3359 109.958 70.1251 113.896L70.2805 114.671C70.4298 115.417 70.6513 116.145 70.942 116.847V116.847C72.1082 119.665 74.4826 122.406 77.4126 121.563C77.5914 121.511 77.768 121.452 77.9418 121.385C79.3175 120.856 80.4282 119.88 81.0845 118.624L87.4278 106.48L92.6102 92.2474V92.2474C93.91 88.6776 96.009 85.392 98.6851 82.6954V82.6954L99.3241 82.0514C101.674 79.6836 103.543 76.9205 104.849 73.8868L109.708 62.5911C110.134 61.5994 110.375 60.5364 110.42 59.4474C110.534 56.659 109.358 53.8904 107.196 51.861L93.4405 38.9489C89.6661 35.4058 83.6109 35.8075 80.8513 39.7839V39.7839C80.369 40.4789 79.7691 41.0842 79.0785 41.5727L79.0599 41.5858L52.1529 60.6196L47.0092 64.6786C44.317 66.803 42.4224 69.693 41.5781 72.9629C41.2171 74.3606 41.0534 75.8076 41.0911 77.2673L41.5359 94.5057C41.6637 99.4571 43.7463 104.292 47.3736 108.057L56.7659 115.584L59.9005 117.856C61.1928 118.792 63.9525 120.06 66.4241 120.888C69.5335 121.93 70.7366 119.661 69.8624 116.5V116.5C69.1756 114.017 67.9239 111.726 66.2051 109.807L59.7858 102.64C58.9747 101.734 58.2795 100.731 57.716 99.6535L57.4725 99.1878C55.9055 96.1916 55.5359 92.7119 56.4386 89.4534L56.9686 87.5399C57.8363 84.4077 60.2227 81.9227 63.3173 80.9291L64.0461 80.695C66.5063 79.9051 69.1954 80.3311 71.2909 81.8427V81.8427C73.1864 83.2099 74.4021 85.3265 74.6281 87.6526L74.8484 89.9208Z" fill="white"/>
<path d="M109.708 62.5911L104.849 73.8868M109.708 62.5911C110.134 61.5994 110.375 60.5364 110.42 59.4474M109.708 62.5911V62.5911C110.134 61.6006 110.376 60.5248 110.42 59.4474V59.4474M104.849 73.8868C103.543 76.9205 101.674 79.6836 99.3241 82.0514M104.849 73.8868V73.8868C103.545 76.9168 101.683 79.6744 99.3596 82.0156L99.3241 82.0514M99.3241 82.0514L98.6851 82.6954M98.6851 82.6954C95.9782 85.4231 93.9121 88.6717 92.6102 92.2474M98.6851 82.6954V82.6954C96.009 85.392 93.91 88.6776 92.6102 92.2474V92.2474M92.6102 92.2474L87.4278 106.48L81.0845 118.624M81.0845 118.624C80.4282 119.88 79.3175 120.856 77.9418 121.385M81.0845 118.624V118.624C80.4304 119.876 79.3419 120.847 78.0233 121.354L77.9418 121.385M77.9418 121.385C77.768 121.452 77.5914 121.511 77.4126 121.563C74.4826 122.406 72.1082 119.665 70.942 116.847V116.847C70.6513 116.145 70.4298 115.417 70.2805 114.671L70.1251 113.896C69.3359 109.958 69.7632 105.873 71.3505 102.183L73.8378 96.4011C74.7156 94.3608 75.0632 92.1316 74.8484 89.9208L74.6281 87.6526C74.4021 85.3265 73.1864 83.2099 71.2909 81.8427V81.8427C69.1954 80.3311 66.5063 79.9051 64.0461 80.695L63.3173 80.9291C60.2227 81.9227 57.8363 84.4077 56.9686 87.5399L56.4386 89.4534C55.5359 92.7119 55.9055 96.1916 57.4725 99.1878L57.716 99.6535C58.2795 100.731 58.9747 101.734 59.7858 102.64L66.2051 109.807C67.9239 111.726 69.1756 114.017 69.8624 116.5V116.5C70.7366 119.661 69.5335 121.93 66.4241 120.888C63.9525 120.06 61.1928 118.792 59.9005 117.856L56.7659 115.584L47.3736 108.057C43.7463 104.292 41.6637 99.4571 41.5359 94.5057L41.0911 77.2673M41.0911 77.2673C41.0534 75.8076 41.2171 74.3606 41.5781 72.9629M41.0911 77.2673L41.0905 77.2423C41.0533 75.8001 41.2174 74.3598 41.5781 72.9629V72.9629M41.5781 72.9629C42.4224 69.693 44.317 66.803 47.0092 64.6786M41.5781 72.9629V72.9629C42.4193 69.7051 44.3048 66.8126 46.9462 64.7283L47.0092 64.6786M47.0092 64.6786L52.1529 60.6196L79.0599 41.5858M79.0599 41.5858C79.7634 41.0882 80.3686 40.4795 80.8513 39.7839M79.0599 41.5858L79.0785 41.5727C79.7691 41.0842 80.369 40.4789 80.8513 39.7839V39.7839M80.8513 39.7839C83.6109 35.8075 89.6661 35.4058 93.4405 38.9489M80.8513 39.7839V39.7839C83.6524 35.7476 89.3855 35.1425 92.9677 38.505L93.4405 38.9489M93.4405 38.9489L107.196 51.861M107.196 51.861C109.358 53.8904 110.534 56.659 110.42 59.4474M107.196 51.861L107.396 52.049C109.431 53.9589 110.534 56.6591 110.42 59.4474V59.4474" stroke="black" stroke-width="8" stroke-linejoin="round"/>
<path d="M72.3281 95.1514C72.5689 97.6301 72.1791 100.129 71.195 102.417L68.4062 108.9C66.6267 113.037 66.1475 117.617 67.0324 122.032L67.2066 122.901C67.374 123.737 67.6224 124.554 67.9483 125.341V125.341C69.2558 128.5 71.9179 131.573 75.203 130.628C75.4035 130.57 75.6014 130.504 75.7964 130.429C77.3387 129.836 78.5841 128.741 79.3199 127.333L86.4319 113.718L92.2422 97.76V97.76C93.6995 93.7576 96.0529 90.0739 99.0532 87.0505V87.0505L99.7697 86.3285C102.404 83.6737 104.5 80.5757 105.964 77.1744L111.412 64.5099C111.89 63.398 112.16 62.2062 112.21 60.9852C112.338 57.8589 111.019 54.7549 108.595 52.4796L93.1732 38.0028C88.9414 34.0304 82.1524 34.4807 79.0584 38.939V38.939C78.5177 39.7181 77.845 40.3968 77.0708 40.9445L77.05 40.9592L46.8823 62.2995L41.1153 66.8503C38.0969 69.2322 35.9727 72.4724 35.026 76.1385C34.6214 77.7057 34.4379 79.328 34.4801 80.9646L34.9788 100.292C35.122 105.843 37.4571 111.264 41.5239 115.486L52.0543 123.924L55.5687 126.471C57.0177 127.521 60.1119 128.943 62.8829 129.871C66.3691 131.04 67.718 128.496 66.7379 124.952V124.952C65.9679 122.168 64.5645 119.6 62.6374 117.448L55.4402 109.411C54.5308 108.396 53.7513 107.271 53.1196 106.064L52.8465 105.541C51.0897 102.182 50.6753 98.2807 51.6873 94.6274L52.2816 92.482C53.2545 88.9702 55.93 86.1842 59.3996 85.0701L60.2168 84.8077C62.975 83.922 65.99 84.3996 68.3395 86.0944V86.0944C70.4647 87.6273 71.8277 90.0004 72.0811 92.6084L72.3281 95.1514Z" fill="white"/>
<path d="M111.412 64.5099L105.964 77.1744M111.412 64.5099C111.89 63.398 112.16 62.2062 112.21 60.9852M111.412 64.5099V64.5099C111.889 63.3993 112.16 62.1932 112.21 60.9852V60.9852M105.964 77.1744C104.5 80.5757 102.404 83.6737 99.7697 86.3285M105.964 77.1744V77.1744C104.502 80.5716 102.415 83.6633 99.8096 86.2883L99.7697 86.3285M99.7697 86.3285L99.0532 87.0505M99.0532 87.0505C96.0183 90.1087 93.7019 93.751 92.2422 97.76M99.0532 87.0505V87.0505C96.0529 90.0739 93.6995 93.7576 92.2422 97.76V97.76M92.2422 97.76L86.4319 113.718L79.3199 127.333M79.3199 127.333C78.5841 128.741 77.3387 129.836 75.7964 130.429M79.3199 127.333V127.333C78.5864 128.737 77.3661 129.825 75.8877 130.394L75.7964 130.429M75.7964 130.429C75.6014 130.504 75.4035 130.57 75.203 130.628C71.9179 131.573 69.2558 128.5 67.9483 125.341V125.341C67.6224 124.554 67.374 123.737 67.2066 122.901L67.0324 122.032C66.1475 117.617 66.6267 113.037 68.4062 108.9L71.195 102.417C72.1791 100.129 72.5689 97.6301 72.3281 95.1514L72.0811 92.6084C71.8277 90.0004 70.4647 87.6273 68.3395 86.0944V86.0944C65.99 84.3996 62.975 83.922 60.2168 84.8077L59.3996 85.0701C55.93 86.1842 53.2545 88.9702 52.2816 92.482L51.6873 94.6274C50.6753 98.2807 51.0897 102.182 52.8465 105.541L53.1196 106.064C53.7513 107.271 54.5308 108.396 55.4402 109.411L62.6374 117.448C64.5645 119.6 65.9679 122.168 66.7379 124.952V124.952C67.718 128.496 66.3691 131.04 62.8829 129.871C60.1119 128.943 57.0177 127.521 55.5687 126.471L52.0543 123.924L41.5239 115.486C37.4571 111.264 35.122 105.843 34.9788 100.292L34.4801 80.9646M34.4801 80.9646C34.4379 79.328 34.6214 77.7057 35.026 76.1385M34.4801 80.9646L34.4794 80.9366C34.4376 79.3196 34.6216 77.7047 35.026 76.1385V76.1385M35.026 76.1385C35.9727 72.4724 38.0969 69.2322 41.1153 66.8503M35.026 76.1385V76.1385C35.9692 72.4859 38.0833 69.243 41.0447 66.9061L41.1153 66.8503M41.1153 66.8503L46.8823 62.2995L77.05 40.9592M77.05 40.9592C77.8387 40.4013 78.5172 39.7188 79.0584 38.939M77.05 40.9592L77.0708 40.9445C77.845 40.3968 78.5177 39.7181 79.0584 38.939V38.939M79.0584 38.939C82.1524 34.4807 88.9414 34.0304 93.1732 38.0028M79.0584 38.939V38.939C82.199 34.4135 88.6268 33.735 92.643 37.5051L93.1732 38.0028M93.1732 38.0028L108.595 52.4796M108.595 52.4796C111.019 54.7549 112.338 57.8589 112.21 60.9852M108.595 52.4796L108.82 52.6904C111.101 54.8317 112.338 57.8591 112.21 60.9852V60.9852" stroke="black" stroke-width="8" stroke-linejoin="round"/>
<path d="M68.3281 100.151C68.5689 102.63 68.1791 105.129 67.195 107.417L64.4062 113.9C62.6267 118.037 62.1475 122.617 63.0324 127.032L63.2066 127.901C63.374 128.737 63.6224 129.554 63.9483 130.341V130.341C65.2558 133.5 67.9179 136.573 71.203 135.628C71.4034 135.57 71.6014 135.504 71.7964 135.429C73.3387 134.836 74.5841 133.741 75.3199 132.333L82.4318 118.718L88.2422 102.76V102.76C89.6995 98.7576 92.0529 95.0739 95.0532 92.0505V92.0505L95.7697 91.3285C98.4042 88.6737 100.5 85.5757 101.964 82.1744L107.412 69.5099C107.89 68.398 108.16 67.2062 108.21 65.9852C108.338 62.8589 107.019 59.7549 104.595 57.4796L89.1732 43.0028C84.9414 39.0304 78.1524 39.4807 75.0584 43.939V43.939C74.5177 44.7181 73.845 45.3968 73.0708 45.9445L73.05 45.9592L42.8823 67.2995L37.1153 71.8503C34.0969 74.2322 31.9727 77.4724 31.026 81.1385C30.6214 82.7057 30.4378 84.328 30.4801 85.9646L30.9788 105.292C31.122 110.843 33.457 116.264 37.5239 120.486L48.0543 128.924L51.5687 131.471C53.0176 132.521 56.1118 133.943 58.8829 134.871C62.3691 136.04 63.718 133.496 62.7379 129.952V129.952C61.9679 127.168 60.5645 124.6 58.6373 122.448L51.4402 114.411C50.5308 113.396 49.7513 112.271 49.1196 111.064L48.8465 110.541C47.0897 107.182 46.6753 103.281 47.6873 99.6274L48.2816 97.482C49.2545 93.9702 51.93 91.1842 55.3996 90.0701L56.2168 89.8077C58.975 88.922 61.99 89.3996 64.3395 91.0944V91.0944C66.4646 92.6273 67.8277 95.0004 68.0811 97.6084L68.3281 100.151Z" fill="white"/>
<path d="M107.412 69.5099L101.964 82.1744M107.412 69.5099C107.89 68.398 108.16 67.2062 108.21 65.9852M107.412 69.5099V69.5099C107.889 68.3993 108.16 67.1932 108.21 65.9852V65.9852M101.964 82.1744C100.5 85.5757 98.4042 88.6737 95.7697 91.3285M101.964 82.1744V82.1744C100.502 85.5716 98.4145 88.6633 95.8096 91.2883L95.7697 91.3285M95.7697 91.3285L95.0532 92.0505M95.0532 92.0505C92.0183 95.1087 89.7019 98.751 88.2422 102.76M95.0532 92.0505V92.0505C92.0529 95.0739 89.6995 98.7576 88.2422 102.76V102.76M88.2422 102.76L82.4318 118.718L75.3199 132.333M75.3199 132.333C74.5841 133.741 73.3387 134.836 71.7964 135.429M75.3199 132.333V132.333C74.5864 133.737 73.3661 134.825 71.8877 135.394L71.7964 135.429M71.7964 135.429C71.6014 135.504 71.4034 135.57 71.203 135.628C67.9179 136.573 65.2558 133.5 63.9483 130.341V130.341C63.6224 129.554 63.374 128.737 63.2066 127.901L63.0324 127.032C62.1475 122.617 62.6267 118.037 64.4062 113.9L67.195 107.417C68.1791 105.129 68.5689 102.63 68.3281 100.151L68.0811 97.6084C67.8277 95.0004 66.4646 92.6273 64.3395 91.0944V91.0944C61.99 89.3996 58.975 88.922 56.2168 89.8077L55.3996 90.0701C51.93 91.1842 49.2545 93.9702 48.2816 97.482L47.6873 99.6274C46.6753 103.281 47.0897 107.182 48.8465 110.541L49.1196 111.064C49.7513 112.271 50.5308 113.396 51.4402 114.411L58.6373 122.448C60.5645 124.6 61.9679 127.168 62.7379 129.952V129.952C63.718 133.496 62.3691 136.04 58.8829 134.871C56.1118 133.943 53.0176 132.521 51.5687 131.471L48.0543 128.924L37.5239 120.486C33.457 116.264 31.122 110.843 30.9788 105.292L30.4801 85.9646M30.4801 85.9646C30.4378 84.328 30.6214 82.7057 31.026 81.1385M30.4801 85.9646L30.4794 85.9366C30.4376 84.3196 30.6216 82.7047 31.026 81.1385V81.1385M31.026 81.1385C31.9727 77.4724 34.0969 74.2322 37.1153 71.8503M31.026 81.1385V81.1385C31.9692 77.4859 34.0832 74.243 37.0447 71.9061L37.1153 71.8503M37.1153 71.8503L42.8823 67.2995L73.05 45.9592M73.05 45.9592C73.8386 45.4013 74.5172 44.7188 75.0584 43.939M73.05 45.9592L73.0708 45.9445C73.845 45.3968 74.5177 44.7181 75.0584 43.939V43.939M75.0584 43.939C78.1524 39.4807 84.9414 39.0304 89.1732 43.0028M75.0584 43.939V43.939C78.199 39.4135 84.6268 38.735 88.643 42.5051L89.1732 43.0028M89.1732 43.0028L104.595 57.4796M104.595 57.4796C107.019 59.7549 108.338 62.8589 108.21 65.9852M104.595 57.4796L104.82 57.6904C107.101 59.8317 108.338 62.8591 108.21 65.9852V65.9852" stroke="black" stroke-width="8" stroke-linejoin="round"/>
<path d="M62.371 151.327L63.236 150.825L62.4178 149.414L61.5316 150.783L62.371 151.327ZM62.691 138.381L61.8259 138.883L62.6441 140.293L63.5303 138.924L62.691 138.381ZM60.7377 151.863C60.3848 152.288 60.443 152.918 60.8678 153.271C61.2926 153.624 61.9231 153.566 62.2761 153.141L60.7377 151.863ZM59.9906 155.308C60.4335 154.978 60.5251 154.351 60.1951 153.908C59.8651 153.466 59.2386 153.374 58.7958 153.704L59.9906 155.308ZM56.3384 155.102C55.8284 155.314 55.5868 155.899 55.7988 156.409C56.0107 156.919 56.596 157.161 57.106 156.949L56.3384 155.102ZM53.7325 157.854C54.2801 157.783 54.6657 157.28 54.5939 156.733C54.522 156.185 54.0198 155.8 53.4722 155.871L53.7325 157.854ZM50.5027 155.869C49.9552 155.797 49.4526 156.182 49.3802 156.729C49.3077 157.277 49.6928 157.779 50.2403 157.852L50.5027 155.869ZM46.8686 156.948C47.379 157.159 47.9638 156.917 48.1748 156.406C48.3858 155.896 48.1431 155.311 47.6327 155.1L46.8686 156.948ZM45.0598 153.617C44.6215 153.281 43.9938 153.364 43.6578 153.802C43.3218 154.241 43.4046 154.868 43.8429 155.205L45.0598 153.617ZM41.3743 152.733C41.71 153.172 42.3377 153.255 42.7762 152.92C43.2148 152.584 43.2982 151.956 42.9625 151.518L41.3743 152.733ZM41.4755 148.942C41.2636 148.432 40.6783 148.191 40.1683 148.403C39.6583 148.615 39.4167 149.2 39.6287 149.71L41.4755 148.942ZM38.7229 146.336C38.7948 146.884 39.2969 147.27 39.8445 147.198C40.3921 147.126 40.7777 146.624 40.7059 146.076L38.7229 146.336ZM40.7083 143.107C40.7808 142.559 40.3957 142.056 39.8482 141.984C39.3007 141.912 38.7981 142.297 38.7256 142.844L40.7083 143.107ZM39.629 139.472C39.4181 139.983 39.6608 140.568 40.1712 140.779C40.6816 140.99 41.2664 140.747 41.4773 140.237L39.629 139.472ZM42.96 137.664C43.296 137.225 43.2131 136.598 42.7748 136.262C42.3365 135.926 41.7088 136.008 41.3728 136.447L42.96 137.664ZM43.844 133.978C43.4054 134.314 43.322 134.941 43.6577 135.38C43.9934 135.819 44.621 135.902 45.0596 135.566L43.844 133.978ZM47.6332 134.08C48.1432 133.868 48.3847 133.283 48.1727 132.773C47.9606 132.263 47.3753 132.021 46.8654 132.233L47.6332 134.08ZM50.2341 131.328C49.6866 131.4 49.3012 131.902 49.3733 132.45C49.4455 132.997 49.9478 133.383 50.4954 133.31L50.2341 131.328ZM53.461 133.311C54.0086 133.383 54.5108 132.997 54.5828 132.45C54.6548 131.902 54.2693 131.4 53.7217 131.328L53.461 133.311ZM57.0899 132.227C56.5792 132.016 55.9947 132.26 55.7844 132.77C55.574 133.281 55.8174 133.866 56.3281 134.076L57.0899 132.227ZM58.8996 135.553C59.3384 135.888 59.966 135.805 60.3014 135.366C60.6367 134.927 60.5528 134.299 60.114 133.964L58.8996 135.553ZM62.5837 136.428C62.2472 135.99 61.6194 135.908 61.1814 136.244C60.7435 136.581 60.6613 137.208 60.9978 137.646L62.5837 136.428ZM64.3242 137.844C64.6771 137.42 64.6189 136.789 64.1941 136.436C63.7693 136.083 63.1388 136.142 62.7859 136.566L64.3242 137.844ZM65.0713 134.4C64.6284 134.73 64.5369 135.356 64.8668 135.799C65.1968 136.242 65.8233 136.333 66.2662 136.003L65.0713 134.4ZM68.7235 134.606C69.2335 134.394 69.4751 133.808 69.2632 133.298C69.0512 132.788 68.4659 132.547 67.956 132.759L68.7235 134.606ZM71.3294 131.853C70.7818 131.925 70.3962 132.427 70.4681 132.975C70.5399 133.522 71.0421 133.908 71.5897 133.836L71.3294 131.853ZM74.5592 133.838C75.1067 133.911 75.6093 133.526 75.6818 132.978C75.7542 132.431 75.3692 131.928 74.8216 131.856L74.5592 133.838ZM78.1933 132.759C77.6829 132.548 77.0981 132.791 76.8871 133.301C76.6761 133.812 76.9188 134.396 77.4292 134.607L78.1933 132.759ZM80.0021 136.09C80.4404 136.426 81.0681 136.343 81.4041 135.905C81.7402 135.467 81.6573 134.839 81.219 134.503L80.0021 136.09ZM83.6876 136.974C83.3519 136.536 82.7243 136.452 82.2857 136.788C81.8472 137.124 81.7638 137.751 82.0994 138.19L83.6876 136.974ZM83.5864 140.765C83.7983 141.275 84.3836 141.517 84.8936 141.305C85.4036 141.093 85.6452 140.508 85.4332 139.998L83.5864 140.765ZM86.339 143.371C86.2672 142.824 85.765 142.438 85.2174 142.51C84.6698 142.582 84.2842 143.084 84.356 143.631L86.339 143.371ZM84.3536 146.601C84.2811 147.148 84.6662 147.651 85.2137 147.723C85.7612 147.796 86.2638 147.411 86.3363 146.863L84.3536 146.601ZM85.4329 150.235C85.6439 149.725 85.4011 149.14 84.8907 148.929C84.3804 148.718 83.7956 148.96 83.5846 149.471L85.4329 150.235ZM82.1019 152.044C81.7659 152.482 81.8488 153.11 82.2871 153.446C82.7254 153.782 83.3531 153.699 83.6891 153.261L82.1019 152.044ZM81.218 155.729C81.6565 155.394 81.7399 154.766 81.4042 154.327C81.0685 153.889 80.4409 153.805 80.0023 154.141L81.218 155.729ZM77.4287 155.627C76.9187 155.839 76.6772 156.425 76.8893 156.935C77.1013 157.445 77.6866 157.686 78.1966 157.474L77.4287 155.627ZM74.8278 158.38C75.3754 158.308 75.7608 157.805 75.6886 157.258C75.6164 156.71 75.1141 156.325 74.5665 156.397L74.8278 158.38ZM71.6009 156.397C71.0534 156.325 70.5511 156.71 70.4791 157.258C70.4071 157.805 70.7926 158.307 71.3402 158.379L71.6009 156.397ZM67.972 157.481C68.4827 157.691 69.0672 157.448 69.2776 156.937C69.4879 156.426 69.2445 155.842 68.7339 155.631L67.972 157.481ZM66.1623 154.154C65.7235 153.819 65.0959 153.903 64.7606 154.342C64.4252 154.781 64.5091 155.408 64.9479 155.743L66.1623 154.154ZM62.4782 153.28C62.8147 153.718 63.4426 153.8 63.8805 153.463C64.3184 153.127 64.4006 152.499 64.0641 152.061L62.4782 153.28ZM61.5316 150.783C61.2896 151.157 61.0248 151.517 60.7377 151.863L62.2761 153.141C62.614 152.734 62.9257 152.31 63.2104 151.87L61.5316 150.783ZM58.7958 153.704C58.4412 153.968 58.0672 154.215 57.6742 154.442L58.6742 156.174C59.1347 155.908 59.5738 155.618 59.9906 155.308L58.7958 153.704ZM57.6742 154.442C57.2374 154.694 56.7912 154.914 56.3384 155.102L57.106 156.949C57.6384 156.727 58.1623 156.469 58.6742 156.174L57.6742 154.442ZM53.4722 155.871C52.4802 156.002 51.4818 155.999 50.5027 155.869L50.2403 157.852C51.3906 158.004 52.5648 158.008 53.7325 157.854L53.4722 155.871ZM47.6327 155.1C46.72 154.723 45.8538 154.226 45.0598 153.617L43.8429 155.205C44.7776 155.921 45.7963 156.505 46.8686 156.948L47.6327 155.1ZM42.9625 151.518C42.6644 151.128 42.3879 150.715 42.1357 150.278L40.4036 151.278C40.6992 151.79 41.0238 152.275 41.3743 152.733L42.9625 151.518ZM42.1357 150.278C41.8835 149.841 41.6637 149.395 41.4755 148.942L39.6287 149.71C39.85 150.242 40.1081 150.766 40.4036 151.278L42.1357 150.278ZM40.7059 146.076C40.5757 145.084 40.5787 144.086 40.7083 143.107L38.7256 142.844C38.5733 143.994 38.5696 145.169 38.7229 146.336L40.7059 146.076ZM41.4773 140.237C41.8546 139.324 42.3512 138.458 42.96 137.664L41.3728 136.447C40.6562 137.381 40.0723 138.4 39.629 139.472L41.4773 140.237ZM45.0596 135.566C45.449 135.268 45.8624 134.992 46.2992 134.74L45.2992 133.007C44.7873 133.303 44.3018 133.628 43.844 133.978L45.0596 135.566ZM46.2992 134.74C46.7355 134.488 47.1811 134.268 47.6332 134.08L46.8654 132.233C46.3336 132.455 45.8105 132.712 45.2992 133.007L46.2992 134.74ZM50.4954 133.31C51.4861 133.18 52.4832 133.182 53.461 133.311L53.7217 131.328C52.5729 131.177 51.4002 131.174 50.2341 131.328L50.4954 133.31ZM56.3281 134.076C57.24 134.452 58.1057 134.946 58.8996 135.553L60.114 133.964C59.1795 133.25 58.1614 132.668 57.0899 132.227L56.3281 134.076ZM60.9978 137.646C61.2962 138.035 61.5732 138.447 61.8259 138.883L63.556 137.879C63.2597 137.368 62.9346 136.884 62.5837 136.428L60.9978 137.646ZM63.5303 138.924C63.7723 138.551 64.0371 138.19 64.3242 137.844L62.7859 136.566C62.4479 136.973 62.1362 137.398 61.8516 137.837L63.5303 138.924ZM66.2662 136.003C66.6207 135.739 66.9947 135.493 67.3877 135.266L66.3877 133.534C65.9272 133.8 65.4881 134.089 65.0713 134.4L66.2662 136.003ZM67.3877 135.266C67.8245 135.014 68.2707 134.794 68.7235 134.606L67.956 132.759C67.4235 132.98 66.8997 133.238 66.3877 133.534L67.3877 135.266ZM71.5897 133.836C72.5817 133.706 73.5802 133.709 74.5592 133.838L74.8216 131.856C73.6714 131.703 72.4971 131.7 71.3294 131.853L71.5897 133.836ZM77.4292 134.607C78.3419 134.985 79.2081 135.481 80.0021 136.09L81.219 134.503C80.2843 133.786 79.2656 133.202 78.1933 132.759L77.4292 134.607ZM82.0994 138.19C82.3975 138.579 82.674 138.992 82.9262 139.429L84.6583 138.429C84.3627 137.917 84.0381 137.432 83.6876 136.974L82.0994 138.19ZM82.9262 139.429C83.1784 139.866 83.3982 140.312 83.5864 140.765L85.4332 139.998C85.2119 139.465 84.9539 138.941 84.6583 138.429L82.9262 139.429ZM84.356 143.631C84.4862 144.623 84.4832 145.622 84.3536 146.601L86.3363 146.863C86.4886 145.713 86.4923 144.539 86.339 143.371L84.356 143.631ZM83.5846 149.471C83.2073 150.384 82.7107 151.25 82.1019 152.044L83.6891 153.261C84.4057 152.326 84.9896 151.307 85.4329 150.235L83.5846 149.471ZM80.0023 154.141C79.613 154.439 79.1995 154.716 78.7627 154.968L79.7627 156.7C80.2747 156.404 80.7601 156.08 81.218 155.729L80.0023 154.141ZM78.7627 154.968C78.3264 155.22 77.8808 155.439 77.4287 155.627L78.1966 157.474C78.7283 157.253 79.2514 156.995 79.7627 156.7L78.7627 154.968ZM74.5665 156.397C73.5759 156.527 72.5788 156.525 71.6009 156.397L71.3402 158.379C72.4891 158.531 73.6617 158.533 74.8278 158.38L74.5665 156.397ZM68.7339 155.631C67.8219 155.256 66.9562 154.761 66.1623 154.154L64.9479 155.743C65.8824 156.458 66.9006 157.039 67.972 157.481L68.7339 155.631ZM64.0641 152.061C63.7657 151.673 63.4887 151.261 63.236 150.825L61.506 151.828C61.8022 152.339 62.1273 152.823 62.4782 153.28L64.0641 152.061Z" fill="black"/>
<path d="M67.8409 101.912C68.0389 105.016 67.5016 108.122 66.2726 110.979L62.238 120.358C59.9231 125.739 59.1918 131.669 60.1301 137.452L60.3535 138.828C60.52 139.854 60.7843 140.861 61.1429 141.836V141.836C62.6834 146.025 66.188 150.121 70.3787 148.586C70.54 148.526 70.7001 148.463 70.8587 148.394C72.8216 147.548 74.4297 146.046 75.4085 144.145L84.8692 125.777L92.7804 104.342V104.342C94.7679 98.9574 97.8194 94.0279 101.753 89.8478V89.8478L102.682 88.8609C106.096 85.2323 108.85 81.0347 110.819 76.4576L118.151 59.4151C118.794 57.9189 119.179 56.3242 119.288 54.6991C119.567 50.5379 118.024 46.4607 115.06 43.5269L96.2005 24.8604C91.0255 19.7384 82.4666 20.5925 78.4059 26.6363V26.6363C77.6956 27.6934 76.8162 28.6264 75.8029 29.3978V29.3978L37.0427 58.9048L29.6154 65.1721C25.728 68.4524 22.9333 72.8401 21.6043 77.7499C21.0362 79.8486 20.7442 82.0124 20.7358 84.1866L20.636 109.863C20.6073 117.239 23.3412 124.357 28.2993 129.817L41.2311 140.64L45.5572 143.894C47.3351 145.231 51.1563 146.998 54.5995 148.128C59.0211 149.58 60.7892 146.221 59.7233 141.691V141.691C58.8229 137.864 57.0357 134.302 54.506 131.293L46.168 121.373C44.9756 119.955 43.9705 118.389 43.1772 116.714L43.105 116.562C40.8954 111.897 40.465 106.585 41.8944 101.625L42.9231 98.0563C44.1488 93.8035 47.3305 90.391 51.4872 88.8709L53.0236 88.3091C56.4681 87.0495 60.3158 87.6151 63.2521 89.8127V89.8127C65.7954 91.7162 67.3768 94.6386 67.5791 97.8089L67.8409 101.912Z" fill="white"/>
<path d="M118.151 59.4151L110.819 76.4576M118.151 59.4151C118.794 57.9189 119.179 56.3242 119.288 54.6991M118.151 59.4151V59.4151C118.794 57.919 119.179 56.3242 119.288 54.6991V54.6991M110.819 76.4576C108.85 81.0347 106.096 85.2323 102.682 88.8609M110.819 76.4576V76.4576C108.85 81.0347 106.096 85.2323 102.682 88.8609V88.8609M102.682 88.8609L101.753 89.8478M101.753 89.8478C97.8194 94.0279 94.7679 98.9574 92.7804 104.342M101.753 89.8478V89.8478C97.8194 94.0279 94.7679 98.9574 92.7804 104.342V104.342M92.7804 104.342L84.8692 125.777L75.4085 144.145M75.4085 144.145C74.4297 146.046 72.8216 147.548 70.8587 148.394M75.4085 144.145V144.145C74.4297 146.046 72.8216 147.548 70.8587 148.394V148.394M70.8587 148.394C70.7001 148.463 70.54 148.526 70.3787 148.586C66.188 150.121 62.6834 146.025 61.1429 141.836V141.836C60.7843 140.861 60.52 139.854 60.3535 138.828L60.1301 137.452C59.1918 131.669 59.9231 125.739 62.238 120.358L66.2726 110.979C67.5016 108.122 68.0389 105.016 67.8409 101.912L67.5791 97.8089C67.3768 94.6386 65.7954 91.7162 63.2521 89.8127V89.8127C60.3158 87.6151 56.4681 87.0495 53.0236 88.3091L51.4872 88.8709C47.3305 90.391 44.1488 93.8035 42.9231 98.0563L41.8944 101.625C40.465 106.585 40.8954 111.897 43.105 116.562L43.1772 116.714C43.9705 118.389 44.9756 119.955 46.168 121.373L54.506 131.293C57.0357 134.302 58.8229 137.864 59.7233 141.691V141.691C60.7892 146.221 59.0211 149.58 54.5995 148.128C51.1563 146.998 47.3351 145.231 45.5572 143.894L41.2311 140.64L28.2993 129.817C23.3412 124.357 20.6073 117.239 20.636 109.863L20.7358 84.1866M20.7358 84.1866C20.7442 82.0124 21.0362 79.8486 21.6043 77.7499M20.7358 84.1866V84.1866C20.7442 82.0124 21.0362 79.8486 21.6043 77.7499V77.7499M21.6043 77.7499C22.9333 72.8401 25.728 68.4524 29.6154 65.1721M21.6043 77.7499V77.7499C22.9333 72.8401 25.728 68.4524 29.6154 65.1721V65.1721M29.6154 65.1721L37.0427 58.9048L75.8029 29.3978M75.8029 29.3978C76.8162 28.6264 77.6956 27.6934 78.4059 26.6363M75.8029 29.3978V29.3978C76.8162 28.6264 77.6956 27.6934 78.4059 26.6363V26.6363M78.4059 26.6363C82.4666 20.5925 91.0255 19.7384 96.2005 24.8604M78.4059 26.6363V26.6363C82.4666 20.5925 91.0255 19.7384 96.2005 24.8604V24.8604M96.2005 24.8604L115.06 43.5269M115.06 43.5269C118.024 46.4607 119.567 50.5379 119.288 54.6991M115.06 43.5269V43.5269C118.024 46.4607 119.567 50.5379 119.288 54.6991V54.6991" stroke="black" stroke-width="8" stroke-linejoin="round"/>
</svg>
