<svg width="132" height="170" viewBox="0 0 132 170" fill="none" xmlns="http://www.w3.org/2000/svg">
<path d="M41.5 55.0165V13C41.5 8.02944 45.5294 4 50.5 4H82C86.9706 4 91 8.02944 91 13V55.0385C91 56.331 91.2784 57.6083 91.8162 58.7836L125.667 132.755C128.395 138.716 124.039 145.5 117.484 145.5H14.5884C8.0147 145.5 3.65886 138.681 6.42217 132.717L40.6662 58.7997C41.2155 57.6141 41.5 56.3232 41.5 55.0165Z" fill="white" stroke="black" stroke-width="8"/>
<path d="M48.781 77.6116V79.5744H41V77.6116H48.781ZM43.2678 74H45.5748V88.3678C45.5748 89.022 45.6693 89.5127 45.8583 89.8399C46.0538 90.1605 46.3014 90.3764 46.6012 90.4876C46.9075 90.5923 47.23 90.6446 47.5689 90.6446C47.8231 90.6446 48.0316 90.6315 48.1945 90.6054C48.3574 90.5727 48.4878 90.5465 48.5855 90.5269L49.0547 92.6074C48.8983 92.6663 48.68 92.7252 48.3998 92.7841C48.1196 92.8495 47.7644 92.8822 47.3343 92.8822C46.6826 92.8822 46.044 92.7416 45.4184 92.4602C44.7993 92.1789 44.2845 91.7503 43.8739 91.1746C43.4699 90.5988 43.2678 89.8726 43.2678 88.9959V74Z" fill="black"/>
<path d="M52.2512 92.6859V77.6116H54.48V79.8884H54.6364C54.9101 79.1426 55.4053 78.5374 56.1222 78.0728C56.839 77.6083 57.6471 77.376 58.5464 77.376C58.7159 77.376 58.9277 77.3793 59.1818 77.3858C59.436 77.3924 59.6282 77.4022 59.7586 77.4153V79.7707C59.6804 79.751 59.5011 79.7216 59.2209 79.6823C58.9472 79.6365 58.6572 79.6136 58.3509 79.6136C57.6211 79.6136 56.9694 79.7674 56.3959 80.0749C55.8289 80.3759 55.3793 80.7946 55.0469 81.3311C54.7211 81.8611 54.5582 82.4663 54.5582 83.1467V92.6859H52.2512Z" fill="black"/>
<path d="M71.9555 86.5227V77.6116H74.2625V92.6859H71.9555V90.1343H71.7991C71.4472 90.8998 70.8998 91.5508 70.1569 92.0873C69.414 92.6173 68.4756 92.8822 67.3416 92.8822C66.4032 92.8822 65.5691 92.6761 64.8392 92.2639C64.1093 91.8452 63.5358 91.2171 63.1188 90.3796C62.7017 89.5356 62.4932 88.4725 62.4932 87.1901V77.6116H64.8001V87.0331C64.8001 88.1322 65.1064 89.009 65.719 89.6632C66.3381 90.3175 67.1266 90.6446 68.0846 90.6446C68.658 90.6446 69.2413 90.4974 69.8343 90.203C70.4339 89.9086 70.9356 89.4571 71.3397 88.8487C71.7502 88.2402 71.9555 87.4649 71.9555 86.5227Z" fill="black"/>
<path d="M84.783 93C83.3363 93 82.0883 92.6794 81.0391 92.0382C79.9964 91.3905 79.1916 90.4876 78.6246 89.3295C78.0642 88.1649 77.784 86.8106 77.784 85.2665C77.784 83.7225 78.0642 82.3616 78.6246 81.1839C79.1916 79.9997 79.9801 79.0771 80.9902 78.4163C82.0068 77.749 83.1929 77.4153 84.5484 77.4153C85.3304 77.4153 86.1026 77.5461 86.8651 77.8079C87.6276 78.0696 88.3216 78.4948 88.9472 79.0837C89.5728 79.666 90.0714 80.438 90.4428 81.3998C90.8143 82.3616 91 83.5458 91 84.9525V85.9339H79.4262V83.9318H88.654C88.654 83.0813 88.4845 82.3223 88.1457 81.655C87.8133 80.9876 87.3376 80.4609 86.7185 80.0749C86.1059 79.6889 85.3825 79.4959 84.5484 79.4959C83.6295 79.4959 82.8345 79.7249 82.1632 80.1829C81.4985 80.6343 80.987 81.2231 80.6285 81.9494C80.2701 82.6756 80.0909 83.4542 80.0909 84.2851V85.6198C80.0909 86.7583 80.2864 87.7233 80.6774 88.515C81.0749 89.3001 81.6256 89.8988 82.3294 90.311C83.0332 90.7166 83.8511 90.9194 84.783 90.9194C85.3891 90.9194 85.9365 90.8344 86.4252 90.6643C86.9205 90.4876 87.3473 90.2259 87.7058 89.8791C88.0642 89.5258 88.3412 89.0875 88.5367 88.564L90.7654 89.1921C90.5308 89.9511 90.1365 90.6185 89.5826 91.1942C89.0287 91.7634 88.3444 92.2083 87.5298 92.5289C86.7152 92.843 85.7996 93 84.783 93Z" fill="black"/>
<path d="M27.1651 138C25.9847 138 24.97 137.848 24.121 137.545C23.2719 137.248 22.5644 136.855 21.9984 136.365C21.4392 135.882 20.994 135.364 20.6627 134.812L22.6093 133.446C22.8301 133.736 23.1097 134.067 23.4479 134.439C23.7862 134.819 24.2487 135.147 24.8354 135.423C25.4291 135.706 26.2056 135.847 27.1651 135.847C28.449 135.847 29.5086 135.537 30.3438 134.916C31.1791 134.295 31.5967 133.322 31.5967 131.997V128.768H31.3896C31.2101 129.057 30.9547 129.416 30.6234 129.844C30.299 130.265 29.8296 130.641 29.2152 130.972C28.6078 131.296 27.7864 131.459 26.7509 131.459C25.467 131.459 24.3142 131.155 23.2926 130.548C22.2779 129.941 21.4737 129.057 20.8801 127.898C20.2934 126.739 20 125.331 20 123.675C20 122.047 20.2865 120.629 20.8594 119.421C21.4323 118.207 22.2296 117.268 23.2512 116.606C24.2728 115.937 25.4532 115.602 26.7924 115.602C27.8278 115.602 28.6492 115.774 29.2567 116.119C29.871 116.458 30.3404 116.844 30.6648 117.279C30.9962 117.706 31.2516 118.058 31.431 118.334H31.6795V115.809H34.0403V132.162C34.0403 133.529 33.7297 134.64 33.1084 135.495C32.4941 136.358 31.6657 136.989 30.6234 137.389C29.588 137.796 28.4352 138 27.1651 138ZM27.0823 129.264C28.0625 129.264 28.8908 129.04 29.5673 128.592C30.2438 128.143 30.758 127.498 31.1101 126.656C31.4621 125.814 31.6381 124.807 31.6381 123.634C31.6381 122.488 31.4656 121.477 31.1204 120.601C30.7753 119.725 30.2645 119.038 29.588 118.541C28.9115 118.045 28.0763 117.796 27.0823 117.796C26.0469 117.796 25.184 118.058 24.4937 118.583C23.8103 119.107 23.2961 119.811 22.9509 120.694C22.6127 121.577 22.4436 122.557 22.4436 123.634C22.4436 124.738 22.6162 125.714 22.9613 126.563C23.3133 127.405 23.8311 128.067 24.5144 128.55C25.2047 129.026 26.0607 129.264 27.0823 129.264Z" fill="black"/>
<path d="M44.9743 132.038C43.5385 132.038 42.2788 131.697 41.195 131.014C40.1182 130.33 39.2761 129.375 38.6686 128.146C38.0681 126.918 37.7678 125.483 37.7678 123.841C37.7678 122.185 38.0681 120.739 38.6686 119.504C39.2761 118.269 40.1182 117.31 41.195 116.627C42.2788 115.943 43.5385 115.602 44.9743 115.602C46.4101 115.602 47.6664 115.943 48.7433 116.627C49.827 117.31 50.6691 118.269 51.2697 119.504C51.8771 120.739 52.1809 122.185 52.1809 123.841C52.1809 125.483 51.8771 126.918 51.2697 128.146C50.6691 129.375 49.827 130.33 48.7433 131.014C47.6664 131.697 46.4101 132.038 44.9743 132.038ZM44.9743 129.844C46.065 129.844 46.9623 129.564 47.6664 129.006C48.3705 128.447 48.8917 127.712 49.2299 126.801C49.5681 125.89 49.7373 124.903 49.7373 123.841C49.7373 122.778 49.5681 121.788 49.2299 120.87C48.8917 119.952 48.3705 119.211 47.6664 118.645C46.9623 118.079 46.065 117.796 44.9743 117.796C43.8837 117.796 42.9863 118.079 42.2822 118.645C41.5782 119.211 41.057 119.952 40.7188 120.87C40.3805 121.788 40.2114 122.778 40.2114 123.841C40.2114 124.903 40.3805 125.89 40.7188 126.801C41.057 127.712 41.5782 128.447 42.2822 129.006C42.9863 129.564 43.8837 129.844 44.9743 129.844Z" fill="black"/>
<path d="M62.8276 115.809V117.879H54.5856V115.809H62.8276ZM56.9878 112H59.4314V127.153C59.4314 127.843 59.5315 128.36 59.7317 128.705C59.9387 129.044 60.201 129.271 60.5186 129.389C60.843 129.499 61.1847 129.554 61.5436 129.554C61.8128 129.554 62.0337 129.54 62.2063 129.513C62.3789 129.478 62.5169 129.451 62.6205 129.43L63.1175 131.624C62.9518 131.686 62.7206 131.748 62.4237 131.811C62.1269 131.88 61.7507 131.914 61.2951 131.914C60.6049 131.914 59.9284 131.766 59.2657 131.469C58.6099 131.172 58.0646 130.72 57.6297 130.113C57.2018 129.506 56.9878 128.74 56.9878 127.815V112Z" fill="black"/>
<path d="M72.7935 132.038C71.3577 132.038 70.0979 131.697 69.0142 131.014C67.9374 130.33 67.0952 129.375 66.4878 128.146C65.8872 126.918 65.587 125.483 65.587 123.841C65.587 122.185 65.8872 120.739 66.4878 119.504C67.0952 118.269 67.9374 117.31 69.0142 116.627C70.0979 115.943 71.3577 115.602 72.7935 115.602C74.2293 115.602 75.4856 115.943 76.5624 116.627C77.6461 117.31 78.4883 118.269 79.0888 119.504C79.6963 120.739 80 122.185 80 123.841C80 125.483 79.6963 126.918 79.0888 128.146C78.4883 129.375 77.6461 130.33 76.5624 131.014C75.4856 131.697 74.2293 132.038 72.7935 132.038ZM72.7935 129.844C73.8841 129.844 74.7815 129.564 75.4856 129.006C76.1897 128.447 76.7108 127.712 77.049 126.801C77.3873 125.89 77.5564 124.903 77.5564 123.841C77.5564 122.778 77.3873 121.788 77.049 120.87C76.7108 119.952 76.1897 119.211 75.4856 118.645C74.7815 118.079 73.8841 117.796 72.7935 117.796C71.7028 117.796 70.8055 118.079 70.1014 118.645C69.3973 119.211 68.8761 119.952 68.5379 120.87C68.1997 121.788 68.0305 122.778 68.0305 123.841C68.0305 124.903 68.1997 125.89 68.5379 126.801C68.8761 127.712 69.3973 128.447 70.1014 129.006C70.8055 129.564 71.7028 129.844 72.7935 129.844Z" fill="black"/>
<path d="M85.397 114C84.3375 114 83.4021 113.736 82.5909 113.207C81.7797 112.673 81.1451 111.921 80.687 110.951C80.229 109.976 80 108.824 80 107.494C80 106.176 80.229 105.031 80.687 104.062C81.1451 103.092 81.7824 102.342 82.5992 101.814C83.4159 101.285 84.3595 101.021 85.4301 101.021C86.2579 101.021 86.9118 101.157 87.3919 101.43C87.8775 101.697 88.2473 102.002 88.5011 102.345C88.7605 102.683 88.9619 102.961 89.1054 103.179H89.2709V97H91.2245V113.738H89.3372V111.81H89.1054C88.9619 112.038 88.7577 112.327 88.4928 112.676C88.228 113.019 87.8499 113.327 87.3588 113.6C86.8677 113.867 86.2137 114 85.397 114ZM85.6619 112.267C86.4455 112.267 87.1077 112.066 87.6485 111.662C88.1893 111.254 88.6004 110.69 88.8819 109.971C89.1633 109.246 89.304 108.41 89.304 107.462C89.304 106.524 89.1661 105.704 88.8902 105.001C88.6142 104.293 88.2059 103.743 87.6651 103.35C87.1243 102.953 86.4565 102.754 85.6619 102.754C84.8341 102.754 84.1443 102.964 83.5925 103.383C83.0462 103.797 82.635 104.361 82.3591 105.075C82.0887 105.783 81.9535 106.579 81.9535 107.462C81.9535 108.355 82.0915 109.167 82.3674 109.897C82.6488 110.622 83.0627 111.199 83.609 111.63C84.1609 112.055 84.8452 112.267 85.6619 112.267Z" fill="black"/>
<path d="M100.239 114C99.0909 114 98.0838 113.73 97.2174 113.191C96.3566 112.651 95.6833 111.897 95.1977 110.927C94.7176 109.957 94.4776 108.824 94.4776 107.527C94.4776 106.219 94.7176 105.078 95.1977 104.102C95.6833 103.127 96.3566 102.37 97.2174 101.83C98.0838 101.291 99.0909 101.021 100.239 101.021C101.387 101.021 102.391 101.291 103.252 101.83C104.118 102.37 104.791 103.127 105.272 104.102C105.757 105.078 106 106.219 106 107.527C106 108.824 105.757 109.957 105.272 110.927C104.791 111.897 104.118 112.651 103.252 113.191C102.391 113.73 101.387 114 100.239 114ZM100.239 112.267C101.111 112.267 101.828 112.047 102.391 111.605C102.954 111.164 103.37 110.584 103.641 109.864C103.911 109.145 104.046 108.366 104.046 107.527C104.046 106.688 103.911 105.906 103.641 105.181C103.37 104.457 102.954 103.871 102.391 103.424C101.828 102.977 101.111 102.754 100.239 102.754C99.3669 102.754 98.6495 102.977 98.0866 103.424C97.5237 103.871 97.1071 104.457 96.8367 105.181C96.5663 105.906 96.4311 106.688 96.4311 107.527C96.4311 108.366 96.5663 109.145 96.8367 109.864C97.1071 110.584 97.5237 111.164 98.0866 111.605C98.6495 112.047 99.3669 112.267 100.239 112.267Z" fill="black"/>
<path d="M55.7153 56V33.0746H59.2323V56H55.7153ZM57.5036 29.2537C56.8181 29.2537 56.227 29.0199 55.7302 28.5522C55.2434 28.0846 55 27.5224 55 26.8657C55 26.209 55.2434 25.6468 55.7302 25.1791C56.227 24.7114 56.8181 24.4776 57.5036 24.4776C58.1892 24.4776 58.7753 24.7114 59.2622 25.1791C59.7589 25.6468 60.0073 26.209 60.0073 26.8657C60.0073 27.5224 59.7589 28.0846 59.2622 28.5522C58.7753 29.0199 58.1892 29.2537 57.5036 29.2537Z" fill="black"/>
<path d="M75.8674 33.0746V36.0597H63.528V33.0746H75.8674ZM67.2239 56V29.9105C67.2239 28.597 67.5319 27.5025 68.1478 26.6269C68.7638 25.7512 69.5636 25.0945 70.5472 24.6567C71.5307 24.2189 72.569 24 73.6618 24C74.5262 24 75.2316 24.0697 75.778 24.209C76.3244 24.3483 76.7318 24.4776 77 24.597L75.9866 27.6418C75.8078 27.5821 75.5594 27.5075 75.2415 27.4179C74.9335 27.3284 74.5262 27.2836 74.0195 27.2836C72.8571 27.2836 72.0176 27.5771 71.5009 28.1642C70.9942 28.7512 70.7409 29.6119 70.7409 30.7463V56H67.2239Z" fill="black"/>
</svg>
