<svg width="147" height="157" viewBox="0 0 147 157" fill="none" xmlns="http://www.w3.org/2000/svg">
<path d="M118.526 118.636C115.155 119.314 106.226 122.356 97.4802 121.098C86.5482 119.526 85.6526 115.444 84.3068 122.251C82.9611 129.058 65.3226 131.544 38.044 126.598C10.7655 121.651 46.4453 141.401 70 140.812C98.7028 139.209 155.29 141.807 131.438 146.303C101.622 151.923 46.064 121.911 53.5141 123.052C60.9643 124.193 62.0212 143.115 38.5051 142.942C14.989 142.77 -20.3113 118.319 22.1995 128.875C64.7103 139.431 1.07436 140.792 21.1705 149.194C41.2667 157.597 11.3727 124.97 53.3212 126.862C95.2697 128.754 157.964 131.652 137.705 140.812" stroke="black" stroke-width="3"/>
<path d="M29.1147 20.1997C27.9475 18.0056 28.7799 15.2807 30.9741 14.1134V14.1134C33.1682 12.9462 35.8931 13.7787 37.0603 15.9728L83.8483 103.924C86.6204 109.242 86.4023 110.934 87.2931 117.48C87.4262 118.458 86.1844 119.071 85.4709 118.389C80.7967 113.923 78.7312 113.587 75.6421 107.661L29.1147 20.1997Z" fill="white" stroke="black"/>
<path d="M79.7104 8.8618C79.3188 6.40756 80.9909 4.10058 83.4452 3.709V3.709C85.8994 3.31743 88.2064 4.98955 88.598 7.44379L104.294 105.821C105.189 111.751 104.434 113.281 103.151 119.762C102.959 120.73 101.586 120.906 101.132 120.03C98.1614 114.287 96.3168 113.299 95.3191 106.692L79.7104 8.8618Z" fill="white" stroke="black" stroke-width="2"/>
<path d="M135.52 5.91664C136.01 3.48006 138.382 1.90174 140.819 2.39136V2.39136C143.255 2.88098 144.833 5.25313 144.344 7.68971L124.717 105.359C123.487 111.229 122.245 112.398 118.781 118.024C118.263 118.864 116.914 118.55 116.795 117.57C116.016 111.153 114.632 109.583 116.003 103.042L135.52 5.91664Z" fill="white" stroke="black" stroke-width="4"/>
</svg>
